<?xml version="1.0" encoding="UTF-8" standalone="no"?>
<svg
   xmlns:dc="http://purl.org/dc/elements/1.1/"
   xmlns:cc="http://creativecommons.org/ns#"
   xmlns:rdf="http://www.w3.org/1999/02/22-rdf-syntax-ns#"
   xmlns:svg="http://www.w3.org/2000/svg"
   xmlns="http://www.w3.org/2000/svg"
   xmlns:sodipodi="http://sodipodi.sourceforge.net/DTD/sodipodi-0.dtd"
   xmlns:inkscape="http://www.inkscape.org/namespaces/inkscape"
   version="1.1"
   id="Layer_1"
   x="0px"
   y="0px"
   viewBox="0 0 1275.8553 1531.1175"
   enable-background="new 0 0 1243.862 1692.539"
   xml:space="preserve"
   inkscape:version="0.91 r13725"
   sodipodi:docname="left-pinky.svg"
   width="1275.8553"
   height="1531.1174"><metadata
     id="metadata11"><rdf:RDF><cc:Work
         rdf:about=""><dc:format>image/svg+xml</dc:format><dc:type
           rdf:resource="http://purl.org/dc/dcmitype/StillImage" /><dc:title></dc:title></cc:Work></rdf:RDF></metadata><defs
     id="defs9" /><sodipodi:namedview
     pagecolor="#ffffff"
     bordercolor="#666666"
     borderopacity="1"
     objecttolerance="10"
     gridtolerance="10"
     guidetolerance="10"
     inkscape:pageopacity="0"
     inkscape:pageshadow="2"
     inkscape:window-width="1536"
     inkscape:window-height="801"
     id="namedview7"
     showgrid="false"
     fit-margin-top="50"
     fit-margin-left="50"
     fit-margin-right="50"
     fit-margin-bottom="50"
     inkscape:zoom="0.27887098"
     inkscape:cx="1106.7332"
     inkscape:cy="874.39118"
     inkscape:window-x="-8"
     inkscape:window-y="-8"
     inkscape:window-maximized="1"
     inkscape:current-layer="Layer_1" /><path
     d="m 499.57073,1465.3752 a 1151.0699,910.81543 0 0 0 93.58789,11.1933 1151.0699,910.81543 0 0 0 114.91601,4.5489 1151.0699,910.81543 0 0 0 81.42383,-2.2813 1151.0699,910.81543 0 0 0 84.45508,-8.1113 c -0.5922,-11.9569 -1.08342,-23.9211 -1.19531,-35.8906 -0.081,-8.589 0.87684,-17.1823 1.21484,-25.7793 0.443,-11.272 5.86244,-20.7829 10.89844,-30.3379 1.879,-3.564 4.36147,-6.8262 8.10547,-9.4102 6.229,-4.299 13.39432,-6.5878 19.61132,-11.0058 20.056,-14.253 37.57822,-30.6212 49.19922,-52.6602 8.765,-16.622 17.52253,-33.2501 26.51953,-49.7461 2.135,-3.916 2.65383,-8.4691 4.92383,-12.1191 7.83112,-12.589 13.00092,-26.4929 20.04692,-39.4649 6.616,-12.183 11.4691,-25.2275 18.4121,-37.3105 4.512,-7.853 10.1866,-14.9564 13.9356,-23.3164 8.328,-18.573 17.8354,-36.5979 25.4804,-55.5039 5.145,-12.726 11.399,-25.1283 14.086,-38.6153 3.745,-18.799 6.873,-37.6725 12.582,-56.06245 6.915,-22.276 15.4193,-43.90347 27.3613,-63.85547 8.63,-14.417 19.346,-27.57081 29.002,-41.38281 14.38,-20.569 29.3878,-40.68272 40.3828,-63.38672 8.888,-18.353 18.7882,-36.25331 25.8242,-55.44531 3.004,-8.192 6.2766,-16.65488 5.3516,-25.54688 -2.2,-21.141 -16.3008,-33.23984 -33.7598,-42.33984 -9.058,-4.722 -19.0159,-6.85989 -29.0469,-7.96289 -10.833,-1.191 -21.8962,-0.58794 -32.1562,2.91406 -12.004,4.097 -22.2428,11.72971 -31.3008,20.59571 -12.416,12.15399 -24.4319,24.74298 -34.9609,38.58398 -8.465,11.129 -15.8455,23.05645 -22.5645,35.31445 -9.037,16.488 -16.6283,33.71335 -25.0273,50.52735 -4.849,9.706 -9.2944,19.57434 -13.8574,29.40234 -8.9611,19.301 -17.7962,38.63891 -24.4962,58.87891 -2.837,8.572 -4.47781,17.60943 -9.00781,25.52343 -1.737,3.035 -2.52339,7.42207 -7.15039,7.91407 -1.838,0.196 -3.48555,1.07993 -5.18555,1.33593 -8.909,1.345 -15.07109,2.40268 -18.74609,-8.36132 -1.981,-5.801 -4.83737,-11.35866 -8.98438,-16.09766 -0.855,-0.977 -1.759,-2.36755 -1.75,-3.56055 0.032,-4.419 -1.29859,-8.57733 -1.93359,-12.86133 -1.248,-8.416 -4.00972,-16.27689 -7.26172,-24.08789 -2.432,-5.842 -5.54926,-11.36118 -5.94726,-18.11718 -0.672,-11.403 -2.75119,-22.66458 -6.61719,-33.51758 -0.541,-1.517 -0.29178,-3.17195 -0.0508,-4.87695 1.047,-7.41001 3.53309,-14.6361 2.24609,-22.3711 -0.658,-3.96 -0.41759,-8.14559 -0.0586,-12.18359 1.374,-15.466 3.00451,-30.89661 2.72851,-46.47461 -0.337,-19.06 -0.46376,-38.06055 4.49024,-56.81055 4.705,-17.808 9.38875,-35.60726 15.59375,-52.94726 5.798,-16.202 11.83628,-32.29733 16.61328,-48.86133 7.704,-26.713 15.65586,-53.37266 20.13086,-80.84766 1.19,-7.305 2.58134,-14.92167 5.27734,-21.26367 4.874,-11.468 8.09302,-23.36122 11.91602,-35.07422 3.173,-9.722 5.53467,-19.75686 8.26367,-29.63086 5.434,-19.661 9.71642,-39.58236 14.77942,-59.31836 3.548,-13.831 3.2993,-28.36344 8.6542,-41.89844 4.161,-10.518 6.3634,-21.72828 9.4864,-32.61328 6.646,-23.165 10.0382,-46.93933 13.9922,-70.61133 1.245,-7.45 1.6583,-15.03476 2.7773,-22.50976 1.733,-11.573 2.7604,-23.1838 1.6074,-34.8418 -1.327,-13.416 -4.9434,-26.1857 -14.1484,-36.4707 -10.829,-12.099 -24.0215,-17.66342 -40.81063,-15.35742 -17.177,2.359 -29.29839,10.65326 -36.77539,26.07226 -7.526,15.521 -12.19694,32.15002 -18.46094,48.16602 -7.972,20.384 -14.99765,41.15612 -21.84765,61.95312 -7.139,21.673 -13.54393,43.58772 -20.29493,65.38672 -9.441,30.487 -24.41292,58.75346 -36.79492,88.06446 -4.582,10.846 -10.54264,21.12062 -14.05664,32.39062 -7.827,25.102 -15.05856,50.39283 -23.10156,75.42383 -9.277,28.872 -20.31823,57.1622 -28.86523,86.2832 -5.137,17.501 -11.74955,34.4411 -18.81055,51.2461 -2.097,4.989 -6.38463,4.61282 -9.76563,5.04882 -6.497,0.838 -13.16953,0.34399 -19.76953,0.33399 -3.938,-0.006 -7.90387,0.10748 -11.79687,-0.35352 -1.401,-0.166 -4.21302,0.61638 -4.04102,-2.76562 0.192,-3.765 -0.20059,-7.55717 -0.0586,-11.32617 1.029,-27.242 4.08234,-54.27761 8.15234,-81.22461 3.188,-21.105 6.06356,-42.24855 5.97656,-63.68555 -0.04,-9.825 -0.0801,-19.72384 1.00586,-29.46484 2.307,-20.698 3.62017,-41.46971 5.07617,-62.22071 1.38,-19.66 -0.5076,-39.31933 -1.4746,-58.98633 -2.005,-40.783 -5.85243,-81.52854 -3.85743,-122.43554 0.945,-19.381 0.71288,-38.82628 -1.57812,-57.98828 -2.529,-21.155 -4.00464,-42.35678 -5.80664,-63.55079 -1.4,-16.468999 -7.72819,-30.735046 -19.24219,-42.623046 -17.931,-18.512 -42.59061,-21.055125 -62.47461,-10.703125 -12.27,6.388 -21.0382,15.999344 -24.2832,29.902344 -1.461,6.259 -1.04699,12.642281 -1.33399,18.988287 -1.32,29.207 -2.01826,58.42925 -1.32226,87.65625 0.636,26.698 -0.90364,53.20687 -5.30664,79.54687 -2.143,12.821 -4.83397,25.58052 -6.29297,38.47852 -1.994,17.625 -5.79784,34.89797 -8.96485,52.29297 -3.00399,16.499 -6.84068,32.85764 -7.67968,49.68164 -0.743,14.912 -1.06563,29.85323 -2.14063,44.74023 -2.145,29.704 -4.0699,59.45708 -4.0039,89.20508 0.075,33.577 -3.717,66.72669 -7.625,99.92969 -0.222,1.888 -1.23289,3.07586 -2.83789,3.75586 -3.985,1.687 -7.89174,3.78144 -12.05274,4.77343 -5.582,1.33 -11.3222,2.95343 -16.7832,-1.26757 -5.458,-4.219 -8.36903,-10.10739 -10.45703,-16.15039 -4.142,-11.987 -6.00063,-24.59182 -8.51563,-37.00782 -4.979,-24.578 -8.61709,-49.3752 -12.37109,-74.1582 -2.787,-18.396 -6.22738,-36.72391 -12.60938,-54.25391 -10.592,-29.091 -22.13554,-57.82245 -30.56054,-87.68945 -7.063,-25.038 -12.45882,-50.39558 -16.75782,-76.01758 -3.625,-21.607 -7.0882,-43.2434 -10.9082,-64.8164 -1.524,-8.61 -4.05003,-17.03986 -5.70703,-25.63086 -3.625,-18.788 -6.59656,-37.72253 -12.85156,-55.89453 -3.126,-9.081 -6.76324,-17.96427 -13.36524,-25.19727 -9.77,-10.705 -22.33011,-16.58978 -36.28711,-18.80078 -8.994,-1.425 -18.24175,-0.81699 -26.71875,3.91602 -6.822,3.80899 -12.70297,8.64532 -17.79297,14.48632 -11.42,13.106 -17.03648,27.99092 -13.64648,45.54492 2.462,12.749 5.0657,25.47482 6.5957,38.38282 2.296,19.368 3.15557,38.90476 6.60157,58.13476 2.849,15.9 5.41785,31.86233 9.63086,47.48633 2.70699,10.04 5.71953,20.00433 8.14453,30.11133 3.379,14.085 6.50184,28.23192 8.83984,42.54492 3.046,18.653 7.26391,37.16778 9.25391,55.92578 3.403,32.079 9.45223,63.63153 16.99023,94.89453 6.221,25.801 13.03016,51.46243 19.41016,77.23243 8.013,32.366 13.83582,64.96432 14.54883,98.36132 0.056,2.623 0.25303,5.26472 -2.29297,7.38672 -8.736,7.28 -17.21775,14.86891 -25.96875,22.12891 -2.099,1.742 -4.19254,3.48228 -7.14454,4.36328 -14.153,4.224 -29.66476,-6.80339 -35.63476,-16.65039 -11.88,-19.595 -25.75819,-37.76047 -38.49219,-56.73047 -4.077,-6.073 -9.09265,-11.59098 -12.59765,-17.95898 -11.445,-20.795 -24.42175,-40.30744 -40.59175,-57.89844 -10.972,-11.937 -21.701,-24.22483 -31.832,-36.92383 -11.583,-14.519 -21.0885,-30.53011 -30.8535,-46.28711 -9.436,-15.225 -18.0875,-30.94884 -28.0645,-45.83984 -10.557,-15.756 -21.5742,-31.20402 -32.1992,-46.91602 -11.926,-17.635 -26.6166,-29.44803 -49.6816,-27.08203 -14.179,1.454 -24.2599,8.34234 -30.7129,20.40234 -7.799,14.576 -6.4533,30.15832 -1.5723,45.07032 9.119,27.854 19.9995,55.03245 34.1875,80.81445 8.81,16.008 18.0486,31.76119 27.5156,47.36719 5.313,8.757 10.4226,17.62559 15.6406,26.43359 10.687,18.039 19.1685,37.3145 30.8555,54.8125 3.525,5.277 7.4287,10.25556 11.0137,15.47656 7.686,11.192 15.301,22.44547 23.375,33.35547 10.802,14.595 21.284,29.39503 30,45.33203 12.821,23.442 25.128,47.16503 35.457,71.83203 4.511,10.772 9.4861,21.3918 10.2481,33.4668 0.404,6.408 2.6675,12.68155 3.85342,19.06055 2.182,11.742 8.38126,22.14083 10.94726,33.79883 1.934,8.785 5.20519,17.25598 7.61719,25.95898 7.565,27.299 15.43392,54.5125 23.29492,81.7285 3.641,12.606 7.50313,25.1481 11.45313,37.6641 3.721,11.792 7.37558,23.6189 11.64258,35.2089 6.304,17.121 13.27629,33.9951 19.90429,50.9981 9.429,24.19 19.91972,47.9007 32.63672,70.5527 7.527,13.408 15.28225,26.7153 22.78125,40.1153 7.164,12.802 14.98044,25.1436 22.64844,37.5996 5.758,9.353 11.95,18.4365 17.875,27.6875 3.246,5.068 6.37334,10.1621 8.27734,15.9941 3.252,9.959 11.88827,17.0467 14.94727,27.1387 2.217,7.315 7.3625,13.094 10.1875,20.082 1.128,2.789 3.27414,4.8072 6.11914,5.7442 2.811,0.926 3.54222,2.9703 3.69922,5.5273 0.988,16.132 -0.41975,32.2394 -0.59375,48.3594 -0.004,0.3562 0.02,0.7103 0.0176,1.0664 z"
     id="path5"
     inkscape:connector-curvature="0"
     style="fill:#333333;fill-opacity:1" /><ellipse
     style="fill:#ff0039;fill-opacity:0.75294118"
     id="path4147"
     cx="-124.99996"
     cy="451.3158"
     rx="125.00002"
     ry="125.00001"
     transform="scale(-1,1)" /></svg>